<svg xmlns="http://www.w3.org/2000/svg" width="1200" height="760" viewBox="0 0 1200 760" fill="none">
  <rect width="1200" height="760" fill="#F6F8FB"/>
  <rect x="64" y="64" width="1072" height="632" rx="18" fill="#FFFFFF" stroke="#D8E0EA"/>
  <rect x="64" y="64" width="1072" height="78" rx="18" fill="#0B1220"/>
  <circle cx="108" cy="103" r="10" fill="#F05D5E"/>
  <circle cx="140" cy="103" r="10" fill="#F2C94C"/>
  <circle cx="172" cy="103" r="10" fill="#2F8F5B"/>
  <text x="218" y="111" fill="#FFFFFF" font-family="Inter, Arial, sans-serif" font-size="24" font-weight="700">Agent flight booking</text>
  <rect x="104" y="184" width="992" height="96" rx="14" fill="#EEF3F7" stroke="#D8E0EA"/>
  <text x="132" y="224" fill="#0F766E" font-family="Inter, Arial, sans-serif" font-size="16" font-weight="800">SEARCH</text>
  <text x="132" y="256" fill="#0B1220" font-family="Inter, Arial, sans-serif" font-size="28" font-weight="800">Paris → Barcelona · 2 agents · flexible dates</text>
  <rect x="104" y="320" width="310" height="260" rx="14" fill="#FFFFFF" stroke="#D8E0EA"/>
  <rect x="445" y="320" width="310" height="260" rx="14" fill="#FFFFFF" stroke="#D8E0EA"/>
  <rect x="786" y="320" width="310" height="260" rx="14" fill="#FFFFFF" stroke="#D8E0EA"/>
  <text x="132" y="366" fill="#0B1220" font-family="Inter, Arial, sans-serif" font-size="24" font-weight="800">AF 1448</text>
  <text x="473" y="366" fill="#0B1220" font-family="Inter, Arial, sans-serif" font-size="24" font-weight="800">VY 8012</text>
  <text x="814" y="366" fill="#0B1220" font-family="Inter, Arial, sans-serif" font-size="24" font-weight="800">IB 5741</text>
  <text x="132" y="414" fill="#5B6472" font-family="Inter, Arial, sans-serif" font-size="18">Direct · 1h 45m</text>
  <text x="473" y="414" fill="#5B6472" font-family="Inter, Arial, sans-serif" font-size="18">Direct · 1h 50m</text>
  <text x="814" y="414" fill="#5B6472" font-family="Inter, Arial, sans-serif" font-size="18">1 stop · 3h 05m</text>
  <rect x="132" y="482" width="122" height="42" rx="8" fill="#0B1220"/>
  <rect x="473" y="482" width="122" height="42" rx="8" fill="#0B1220"/>
  <rect x="814" y="482" width="122" height="42" rx="8" fill="#0B1220"/>
  <text x="162" y="510" fill="#FFFFFF" font-family="Inter, Arial, sans-serif" font-size="15" font-weight="700">Select</text>
  <text x="503" y="510" fill="#FFFFFF" font-family="Inter, Arial, sans-serif" font-size="15" font-weight="700">Select</text>
  <text x="844" y="510" fill="#FFFFFF" font-family="Inter, Arial, sans-serif" font-size="15" font-weight="700">Select</text>
  <path d="M1000 204h54l-18 18 18 18h-54l-18-18 18-18Z" fill="#0F766E"/>
</svg>
