<svg xmlns="http://www.w3.org/2000/svg" width="1200" height="760" viewBox="0 0 1200 760" fill="none">
  <rect width="1200" height="760" fill="#F6F8FB"/>
  <rect x="70" y="70" width="420" height="620" rx="28" fill="#0B1220"/>
  <rect x="96" y="118" width="368" height="524" rx="18" fill="#F6F8FB"/>
  <text x="124" y="164" fill="#0F766E" font-family="Inter, Arial, sans-serif" font-size="16" font-weight="800">COMMUNITY BOT</text>
  <rect x="124" y="204" width="286" height="64" rx="14" fill="#FFFFFF" stroke="#D8E0EA"/>
  <text x="148" y="232" fill="#0B1220" font-family="Inter, Arial, sans-serif" font-size="17" font-weight="800">Premium materials</text>
  <text x="148" y="254" fill="#5B6472" font-family="Inter, Arial, sans-serif" font-size="14">Guides, videos, templates</text>
  <rect x="178" y="292" width="246" height="72" rx="14" fill="#D9F3EF"/>
  <text x="202" y="321" fill="#0B1220" font-family="Inter, Arial, sans-serif" font-size="17" font-weight="800">Private club</text>
  <text x="202" y="345" fill="#5B6472" font-family="Inter, Arial, sans-serif" font-size="14">Subscription required</text>
  <rect x="124" y="398" width="306" height="84" rx="14" fill="#FFFFFF" stroke="#D8E0EA"/>
  <text x="148" y="430" fill="#0B1220" font-family="Inter, Arial, sans-serif" font-size="17" font-weight="800">Access expires soon</text>
  <text x="148" y="456" fill="#5B6472" font-family="Inter, Arial, sans-serif" font-size="14">Reminder sent automatically</text>
  <rect x="565" y="98" width="565" height="164" rx="16" fill="#FFFFFF" stroke="#D8E0EA"/>
  <text x="602" y="144" fill="#0F766E" font-family="Inter, Arial, sans-serif" font-size="16" font-weight="800">SALES AND ACCESS</text>
  <text x="602" y="194" fill="#0B1220" font-family="Inter, Arial, sans-serif" font-size="34" font-weight="800">Paid community operations</text>
  <rect x="565" y="312" width="170" height="190" rx="16" fill="#FFFFFF" stroke="#D8E0EA"/>
  <text x="598" y="366" fill="#0B1220" font-family="Inter, Arial, sans-serif" font-size="23" font-weight="800">Materials</text>
  <text x="598" y="399" fill="#5B6472" font-family="Inter, Arial, sans-serif" font-size="16">Paid content</text>
  <rect x="775" y="312" width="170" height="190" rx="16" fill="#FFFFFF" stroke="#D8E0EA"/>
  <text x="808" y="366" fill="#0B1220" font-family="Inter, Arial, sans-serif" font-size="23" font-weight="800">Club</text>
  <text x="808" y="399" fill="#5B6472" font-family="Inter, Arial, sans-serif" font-size="16">Gated chat</text>
  <rect x="985" y="312" width="145" height="190" rx="16" fill="#0B1220"/>
  <text x="1018" y="366" fill="#FFFFFF" font-family="Inter, Arial, sans-serif" font-size="23" font-weight="800">Expiry</text>
  <text x="1018" y="399" fill="#D9F3EF" font-family="Inter, Arial, sans-serif" font-size="16">Auto remove</text>
  <rect x="602" y="446" width="92" height="38" rx="8" fill="#0B1220"/>
  <rect x="812" y="446" width="92" height="38" rx="8" fill="#0B1220"/>
  <rect x="1018" y="446" width="72" height="38" rx="8" fill="#F6F8FB"/>
  <path d="M490 348C528 348 528 407 565 407" stroke="#0F766E" stroke-width="4" stroke-linecap="round"/>
  <path d="M735 407H775" stroke="#0F766E" stroke-width="4" stroke-linecap="round"/>
  <path d="M945 407H985" stroke="#0F766E" stroke-width="4" stroke-linecap="round"/>
  <rect x="565" y="548" width="565" height="96" rx="16" fill="#D9F3EF"/>
  <text x="602" y="588" fill="#0B1220" font-family="Inter, Arial, sans-serif" font-size="22" font-weight="800">Reminder sequence</text>
  <text x="602" y="620" fill="#5B6472" font-family="Inter, Arial, sans-serif" font-size="17">3 days before, 1 day before, expired access</text>
</svg>
